HIERARCHY
ROOT Root
{
  OFFSET 0.0 0.0 0.0
  CHANNELS 6 Xposition Yposition Zposition Zrotation Yrotation Xrotation
  JOINT Hips
  {
    OFFSET 0.0 100.0 0.0
    CHANNELS 6 Xposition Yposition Zposition Zrotation Yrotation Xrotation
    JOINT Spine1
    {
      OFFSET -0.013727 5.003763 -0.053727
      CHANNELS 3 Zrotation Yrotation Xrotation
      JOINT Spine2
      {
        OFFSET -0.0 7.125301 -0.029825
        CHANNELS 3 Zrotation Yrotation Xrotation
        JOINT Chest
        {
          OFFSET -1e-06 7.550063 -0.815971
          CHANNELS 3 Zrotation Yrotation Xrotation
          JOINT Neck1
          {
            OFFSET -0.181677 26.311295 -0.553348
            CHANNELS 3 Zrotation Yrotation Xrotation
            JOINT Neck2
            {
              OFFSET -3e-06 7.709397 2.302585
              CHANNELS 3 Zrotation Yrotation Xrotation
              JOINT Head
              {
                OFFSET -5e-06 6.128916 1.953709
                CHANNELS 3 Zrotation Yrotation Xrotation
                JOINT HeadEnd
                {
                  OFFSET 0.003598 16.065403 -1.835379
                  CHANNELS 3 Zrotation Yrotation Xrotation
                }
                JOINT Jaw
                {
                  OFFSET 0.002637 0.475592 3.094941
                  CHANNELS 3 Zrotation Yrotation Xrotation
                }
                JOINT LeftEye
                {
                  OFFSET 3.206381 5.380205 7.586883
                  CHANNELS 3 Zrotation Yrotation Xrotation
                }
                JOINT RightEye
                {
                  OFFSET -3.22244 5.361869 7.558234
                  CHANNELS 3 Zrotation Yrotation Xrotation
                }
              }
            }
          }
          JOINT LeftShoulder
          {
            OFFSET 1.621652 23.237164 5.113413
            CHANNELS 3 Zrotation Yrotation Xrotation
            JOINT LeftArm
            {
              OFFSET 14.919846 2e-06 -5.502326
              CHANNELS 3 Zrotation Yrotation Xrotation
              JOINT LeftForeArm
              {
                OFFSET 28.739307 0.0 -0.002588
                CHANNELS 3 Zrotation Yrotation Xrotation
                JOINT LeftHand
                {
                  OFFSET 27.093981 -1e-06 0.002609
                  CHANNELS 3 Zrotation Yrotation Xrotation
                  JOINT LeftHandThumb1
                  {
                    OFFSET 2.276482 -1.392045 3.191413
                    CHANNELS 3 Zrotation Yrotation Xrotation
                    JOINT LeftHandThumb2
                    {
                      OFFSET 4.012836 -1.828127 1.641654
                      CHANNELS 3 Zrotation Yrotation Xrotation
                      JOINT LeftHandThumb3
                      {
                        OFFSET 2.798515 0.0 -3e-06
                        CHANNELS 3 Zrotation Yrotation Xrotation
                        JOINT LeftHandThumbEnd
                        {
                          OFFSET 3.180793 -4e-06 4e-06
                          CHANNELS 3 Zrotation Yrotation Xrotation
                        }
                      }
                    }
                  }
                  JOINT LeftHandIndex1
                  {
                    OFFSET 3.247555 -0.531998 2.296169
                    CHANNELS 3 Zrotation Yrotation Xrotation
                    JOINT LeftHandIndex2
                    {
                      OFFSET 6.364578 0.01206 0.1786
                      CHANNELS 3 Zrotation Yrotation Xrotation
                      JOINT LeftHandIndex3
                      {
                        OFFSET 3.662364 0.0 0.0
                        CHANNELS 3 Zrotation Yrotation Xrotation
                        JOINT LeftHandIndex4
                        {
                          OFFSET 2.329242 4e-06 4e-06
                          CHANNELS 3 Zrotation Yrotation Xrotation
                          JOINT LeftHandIndexEnd
                          {
                            OFFSET 2.759615 -0.180537 -0.113024
                            CHANNELS 3 Zrotation Yrotation Xrotation
                          }
                        }
                      }
                    }
                  }
                  JOINT LeftHandMiddle1
                  {
                    OFFSET 3.163495 0.240981 1.000332
                    CHANNELS 3 Zrotation Yrotation Xrotation
                    JOINT LeftHandMiddle2
                    {
                      OFFSET 6.19078 -0.259278 -1.002548
                      CHANNELS 3 Zrotation Yrotation Xrotation
                      JOINT LeftHandMiddle3
                      {
                        OFFSET 4.35652 -4e-06 -1e-06
                        CHANNELS 3 Zrotation Yrotation Xrotation
                        JOINT LeftHandMiddle4
                        {
                          OFFSET 2.996877 -8e-06 0.0
                          CHANNELS 3 Zrotation Yrotation Xrotation
                          JOINT LeftHandMiddleEnd
                          {
                            OFFSET 2.304287 -0.294569 -0.031741
                            CHANNELS 3 Zrotation Yrotation Xrotation
                          }
                        }
                      }
                    }
                  }
                  JOINT LeftHandRing1
                  {
                    OFFSET 2.882643 -0.053652 -0.322543
                    CHANNELS 3 Zrotation Yrotation Xrotation
                    JOINT LeftHandRing2
                    {
                      OFFSET 5.854541 -0.486202 -1.373841
                      CHANNELS 3 Zrotation Yrotation Xrotation
                      JOINT LeftHandRing3
                      {
                        OFFSET 4.350578 0.0 3e-06
                        CHANNELS 3 Zrotation Yrotation Xrotation
                        JOINT LeftHandRing4
                        {
                          OFFSET 2.651321 7e-06 2e-06
                          CHANNELS 3 Zrotation Yrotation Xrotation
                          JOINT LeftHandRingEnd
                          {
                            OFFSET 1.936105 0.077687 -7.1e-05
                            CHANNELS 3 Zrotation Yrotation Xrotation
                          }
                        }
                      }
                    }
                  }
                  JOINT LeftHandPinky1
                  {
                    OFFSET 2.8655 -0.310005 -1.600378
                    CHANNELS 3 Zrotation Yrotation Xrotation
                    JOINT LeftHandPinky2
                    {
                      OFFSET 5.087849 -1.331141 -1.77123
                      CHANNELS 3 Zrotation Yrotation Xrotation
                      JOINT LeftHandPinky3
                      {
                        OFFSET 3.070974 4e-06 0.0
                        CHANNELS 3 Zrotation Yrotation Xrotation
                        JOINT LeftHandPinky4
                        {
                          OFFSET 1.549672 0.0 1e-06
                          CHANNELS 3 Zrotation Yrotation Xrotation
                          JOINT LeftHandPinkyEnd
                          {
                            OFFSET 1.944893 -0.157802 0.057219
                            CHANNELS 3 Zrotation Yrotation Xrotation
                          }
                        }
                      }
                    }
                  }
                }
              }
            }
          }
          JOINT RightShoulder
          {
            OFFSET -1.380118 23.180309 5.214158
            CHANNELS 3 Zrotation Yrotation Xrotation
            JOINT RightArm
            {
              OFFSET -15.037196 1.2e-05 -5.545604
              CHANNELS 3 Zrotation Yrotation Xrotation
              JOINT RightForeArm
              {
                OFFSET -28.736639 2e-06 -0.002597
                CHANNELS 3 Zrotation Yrotation Xrotation
                JOINT RightHand
                {
                  OFFSET -27.133619 -0.0 0.002613
                  CHANNELS 3 Zrotation Yrotation Xrotation
                  JOINT RightHandThumb1
                  {
                    OFFSET -2.274032 -1.383988 3.163127
                    CHANNELS 3 Zrotation Yrotation Xrotation
                    JOINT RightHandThumb2
                    {
                      OFFSET -4.011429 -1.827466 1.640914
                      CHANNELS 3 Zrotation Yrotation Xrotation
                      JOINT RightHandThumb3
                      {
                        OFFSET -2.794935 -4e-06 -3e-06
                        CHANNELS 3 Zrotation Yrotation Xrotation
                        JOINT RightHandThumbEnd
                        {
                          OFFSET -3.183852 4e-06 1e-06
                          CHANNELS 3 Zrotation Yrotation Xrotation
                        }
                      }
                    }
                  }
                  JOINT RightHandIndex1
                  {
                    OFFSET -3.253266 -0.520057 2.282866
                    CHANNELS 3 Zrotation Yrotation Xrotation
                    JOINT RightHandIndex2
                    {
                      OFFSET -6.341917 0.012471 0.178266
                      CHANNELS 3 Zrotation Yrotation Xrotation
                      JOINT RightHandIndex3
                      {
                        OFFSET -3.654871 -8e-06 -0.0
                        CHANNELS 3 Zrotation Yrotation Xrotation
                        JOINT RightHandIndex4
                        {
                          OFFSET -2.327586 0.0 1e-06
                          CHANNELS 3 Zrotation Yrotation Xrotation
                          JOINT RightHandIndexEnd
                          {
                            OFFSET -2.76179 -0.180656 -0.113078
                            CHANNELS 3 Zrotation Yrotation Xrotation
                          }
                        }
                      }
                    }
                  }
                  JOINT RightHandMiddle1
                  {
                    OFFSET -3.168106 0.246593 1.00103
                    CHANNELS 3 Zrotation Yrotation Xrotation
                    JOINT RightHandMiddle2
                    {
                      OFFSET -6.180828 -0.258836 -1.000895
                      CHANNELS 3 Zrotation Yrotation Xrotation
                      JOINT RightHandMiddle3
                      {
                        OFFSET -4.348901 0.0 -0.0
                        CHANNELS 3 Zrotation Yrotation Xrotation
                        JOINT RightHandMiddle4
                        {
                          OFFSET -3.00024 -4e-06 -2e-06
                          CHANNELS 3 Zrotation Yrotation Xrotation
                          JOINT RightHandMiddleEnd
                          {
                            OFFSET -2.30252 -0.29437 -0.031706
                            CHANNELS 3 Zrotation Yrotation Xrotation
                          }
                        }
                      }
                    }
                  }
                  JOINT RightHandRing1
                  {
                    OFFSET -2.88569 -0.067952 -0.308858
                    CHANNELS 3 Zrotation Yrotation Xrotation
                    JOINT RightHandRing2
                    {
                      OFFSET -5.854198 -0.48613 -1.373731
                      CHANNELS 3 Zrotation Yrotation Xrotation
                      JOINT RightHandRing3
                      {
                        OFFSET -4.33881 -4e-06 -0.0
                        CHANNELS 3 Zrotation Yrotation Xrotation
                        JOINT RightHandRing4
                        {
                          OFFSET -2.654903 -4e-06 4e-06
                          CHANNELS 3 Zrotation Yrotation Xrotation
                          JOINT RightHandRingEnd
                          {
                            OFFSET -1.933568 0.077527 -5.2e-05
                            CHANNELS 3 Zrotation Yrotation Xrotation
                          }
                        }
                      }
                    }
                  }
                  JOINT RightHandPinky1
                  {
                    OFFSET -2.866425 -0.342796 -1.584145
                    CHANNELS 3 Zrotation Yrotation Xrotation
                    JOINT RightHandPinky2
                    {
                      OFFSET -5.091371 -1.332055 -1.772385
                      CHANNELS 3 Zrotation Yrotation Xrotation
                      JOINT RightHandPinky3
                      {
                        OFFSET -3.062664 -4e-06 1e-06
                        CHANNELS 3 Zrotation Yrotation Xrotation
                        JOINT RightHandPinky4
                        {
                          OFFSET -1.546529 4e-06 -2e-06
                          CHANNELS 3 Zrotation Yrotation Xrotation
                          JOINT RightHandPinkyEnd
                          {
                            OFFSET -1.945119 -0.157718 0.057211
                            CHANNELS 3 Zrotation Yrotation Xrotation
                          }
                        }
                      }
                    }
                  }
                }
              }
            }
          }
        }
      }
    }
    JOINT LeftLeg
    {
      OFFSET 10.043214 -8.434526 2.595655
      CHANNELS 3 Zrotation Yrotation Xrotation
      JOINT LeftShin
      {
        OFFSET -1e-06 -43.221752 -0.802913
        CHANNELS 3 Zrotation Yrotation Xrotation
        JOINT LeftFoot
        {
          OFFSET 1e-06 -42.155094 -3.481523
          CHANNELS 3 Zrotation Yrotation Xrotation
          JOINT LeftToeBase
          {
            OFFSET 0.0 -5.059472 13.231529
            CHANNELS 3 Zrotation Yrotation Xrotation
            JOINT LeftToeEnd
            {
              OFFSET -0.009607 -1.647619 6.513017
              CHANNELS 3 Zrotation Yrotation Xrotation
            }
          }
        }
      }
    }
    JOINT RightLeg
    {
      OFFSET -10.047278 -8.29526 2.620317
      CHANNELS 3 Zrotation Yrotation Xrotation
      JOINT RightShin
      {
        OFFSET 1e-06 -43.362206 -0.805556
        CHANNELS 3 Zrotation Yrotation Xrotation
        JOINT RightFoot
        {
          OFFSET 2e-06 -42.117393 -3.478398
          CHANNELS 3 Zrotation Yrotation Xrotation
          JOINT RightToeBase
          {
            OFFSET -0.0 -5.079609 13.284196
            CHANNELS 3 Zrotation Yrotation Xrotation
            JOINT RightToeEnd
            {
              OFFSET 0.009532 -1.634378 6.460591
              CHANNELS 3 Zrotation Yrotation Xrotation
            }
          }
        }
      }
    }
  }
}
MOTION
Frames: 4
Frame Time: 0.03333333333333333
0.0 0.0 0.0 0.0 -0.0 0.0 -0.782973 99.173927 -1.82487 0.29151 7.73432 -4.919323 1.029974 0.331366 -4.585089 0.145904 1.12946 -6.913548 1.09922 0.275602 14.250397 13.322131 -4.645315 11.009768 -0.343526 1.588164 -3.836467 3.657912 -2.775978 0.53992 7.6e-05 -2.3e-05 6e-06 -0.088227 0.087772 -0.143165 0.730786 -3.574683 -10.664821 -0.892 3.738173 -10.623469 -7.497018 -3.477594 14.932261 -68.876228 -6.568758 15.90502 0.580265 -27.100361 -0.471929 -2.509142 -5.468868 3.693246 -5.882112 9.861292 0.70259 -10.936879 -0.360574 7.156209 -1e-06 8.77483 -3e-06 -15.41885 17.860735 6.262475 -1.844034 2.498507 -2.507278 -10.16361 4.678949 4.621109 -20.97604 -1e-06 1e-06 -21.226305 2.451701 -3.594006 -0.0 -6e-06 1e-06 -1.362683 2.240799 -0.746323 -21.33493 0.584913 3.008322 -13.821227 -1e-06 1e-06 -23.887188 -0.249077 -0.839487 -59.974949 2.384592 -1.27907 -0.294026 1.679688 0.833255 -14.218221 0.093215 1.300579 -34.212082 -0.287562 0.967167 -20.033234 0.964536 1.212843 0.0 0.0 0.0 -3.440391 0.788234 0.501655 -15.928196 -3.16731 2.999707 -6.338832 -0.0 1e-06 -18.123463 3.648185 -4.905677 -3e-06 0.0 -2e-06 5.147097 15.599973 11.72668 -84.863792 61.86618 -120.247299 -174.911591 64.825424 -177.354996 18.347939 -2.240395 9.735784 2.243541 -5.25504 -3.18016 14.2829 -0.826593 6.95251 -3e-06 -12.69061 -2e-06 19.59178 -16.229847 1.883621 1.665666 -1.955922 -2.8783 4.7278 -4.170588 4.993928 11.020534 4e-06 1e-06 12.109058 -3.735717 -2.866784 -0.0 1e-06 1e-06 1.291984 -1.928548 -1.498091 14.80014 0.567471 3.865615 14.242579 -1.341735 -6.660657 19.631977 0.143926 -0.64824 52.426525 -1.405917 -5.43259 0.353029 -1.511149 -0.031939 20.222803 3.684316 2.316637 18.787287 7e-06 4e-06 10.751636 -0.479868 1.397912 0.0 -0.0 -1e-06 3.273808 0.305949 -0.580111 21.486834 11.830381 2.266141 8.162933 3e-06 1e-06 18.399096 -3.798988 -4.940573 3e-06 1e-06 -2e-06 8.15022 6.086102 6.830427 -0.010458 -0.113841 4.433145 -8.299811 -1.433263 -5.670209 1.674073 -2.021168 -0.517639 0.0 -1e-06 2e-06 -2.547977 -3.337393 4.367067 -0.030364 0.114004 11.738489 6.310222 -18.527342 -11.819198 -1.455028 0.891914 0.49295 -0.0 -0.0 -1e-06 
0.0 0.0 0.0 0.0 -0.0 0.0 -0.781724 99.169861 -1.815296 0.331217 7.898311 -4.952601 1.03892 0.353856 -4.574421 0.163195 1.154569 -6.912059 1.193444 0.330433 14.311009 13.360979 -4.694813 11.19518 -0.332662 1.727791 -3.842423 3.737567 -2.563952 0.522934 7.7e-05 -2.3e-05 6e-06 -0.091786 0.082267 -0.136367 0.725349 -3.578544 -10.657408 -0.894038 3.732196 -10.615245 -7.36681 -3.441989 14.981755 -68.981308 -6.669395 16.051649 0.558151 -27.373947 -0.475787 -2.369479 -5.556946 3.622088 -5.88211 9.86129 0.702588 -10.93688 -0.360576 7.156208 1e-06 8.774831 -2e-06 -15.383154 17.845385 6.291639 -1.844034 2.498506 -2.507278 -10.16361 4.678947 4.621109 -20.976042 -5e-06 2e-06 -21.226305 2.451698 -3.594003 -0.0 -5e-06 1e-06 -1.362683 2.240799 -0.746325 -21.334932 0.584909 3.00832 -13.821226 -4e-06 -1e-06 -23.88719 -0.249082 -0.839483 -59.967121 2.383566 -1.267057 -0.294025 1.679689 0.833257 -14.218221 0.093214 1.300579 -34.212082 -0.287567 0.96717 -20.03323 0.964534 1.212844 0.0 -1e-06 0.0 -3.440391 0.788236 0.501655 -15.9282 -3.167313 2.999705 -6.338832 -2e-06 1e-06 -18.123461 3.648183 -4.905674 -3e-06 0.0 -3e-06 5.04836 15.640077 11.783589 -86.235146 62.021397 -120.879326 -175.50795 64.907021 -177.6492 18.754711 -1.849943 8.624452 2.243542 -5.255037 -3.180158 14.282896 -0.826595 6.952505 -4e-06 -12.690605 0.0 19.535997 -16.231415 1.888907 1.665667 -1.955921 -2.8783 4.7278 -4.170586 4.993925 11.02053 6e-06 -0.0 12.109056 -3.735715 -2.866785 -0.0 1e-06 1e-06 1.291985 -1.928548 -1.498088 14.800136 0.567468 3.865609 14.242579 -1.341734 -6.660658 19.631975 0.143928 -0.648245 52.386684 -1.381621 -5.406409 0.35303 -1.511152 -0.031941 20.222801 3.684313 2.316631 18.787283 7e-06 -3e-06 10.751634 -0.479869 1.397907 0.0 0.0 -1e-06 3.273807 0.305946 -0.58011 21.486822 11.830378 2.266131 8.162929 3e-06 -1e-06 18.399088 -3.798982 -4.940575 2e-06 -1e-06 -3e-06 8.103345 5.929296 6.832677 -0.006646 -0.101979 4.426207 -8.348034 -1.465537 -5.61167 1.671772 -2.044123 -0.544661 -0.0 0.0 2e-06 -2.605867 -3.490025 4.435589 -0.03214 0.127268 11.758158 6.341968 -18.527992 -11.867319 -1.454658 0.907706 0.480605 -0.0 0.0 -1e-06 
0.0 0.0 0.0 0.0 -0.0 0.0 -0.787609 99.165932 -1.810484 0.35269 8.012033 -4.953179 1.045159 0.37552 -4.581279 0.170279 1.17858 -6.914969 1.28586 0.346669 14.372802 13.357441 -4.736561 11.379151 -0.284088 1.898646 -3.826312 3.778647 -2.356299 0.506875 7.7e-05 -2.2e-05 6e-06 -0.092919 0.0781 -0.124543 0.722097 -3.580185 -10.638794 -0.893378 3.726658 -10.59471 -7.208672 -3.415246 15.01094 -69.110611 -6.697603 16.331486 0.531703 -27.554333 -0.476722 -2.323336 -5.530554 3.632468 -5.882108 9.861288 0.702592 -10.936877 -0.360576 7.156211 1e-06 8.774828 -1e-06 -15.366396 17.853062 6.319325 -1.844032 2.498505 -2.507279 -10.163604 4.678945 4.621111 -20.976034 -5e-06 4e-06 -21.226299 2.451696 -3.593999 -0.0 -5e-06 1e-06 -1.362682 2.240798 -0.746323 -21.334925 0.584909 3.008326 -13.821221 -3e-06 3e-06 -23.887178 -0.249079 -0.839483 -59.994137 2.386607 -1.265357 -0.294024 1.679687 0.833256 -14.218215 0.093214 1.300581 -34.212067 -0.287563 0.967171 -20.033226 0.964537 1.212845 0.0 -0.0 0.0 -3.440389 0.788232 0.501656 -15.928194 -3.167311 2.999708 -6.33883 -1e-06 2e-06 -18.123455 3.648182 -4.90567 -3e-06 0.0 -2e-06 4.980547 15.657602 11.862791 -87.474823 62.193108 -121.083069 -175.932571 64.696625 -177.762726 19.434063 -1.23894 7.309715 2.243543 -5.255038 -3.180158 14.282898 -0.826594 6.952503 -5e-06 -12.690612 1e-06 19.394316 -16.252977 1.913002 1.665668 -1.95592 -2.878302 4.7278 -4.17059 4.993926 11.020534 7e-06 -2e-06 12.109059 -3.735714 -2.866786 -0.0 1e-06 -0.0 1.291985 -1.928549 -1.49809 14.800138 0.567472 3.865605 14.242583 -1.341733 -6.660663 19.631985 0.143931 -0.648247 52.34927 -1.33373 -5.394952 0.353029 -1.511151 -0.03194 20.222803 3.684313 2.316627 18.787287 9e-06 -3e-06 10.751634 -0.479867 1.397906 0.0 -0.0 -1e-06 3.273809 0.305947 -0.58011 21.486828 11.830388 2.266129 8.16293 3e-06 -2e-06 18.399094 -3.798982 -4.940579 2e-06 -1e-06 -3e-06 8.071547 5.787332 6.767467 0.001548 -0.090505 4.495513 -8.396276 -1.464582 -5.591999 1.667011 -2.066538 -0.556481 0.0 0.0 2e-06 -2.651341 -3.669555 4.438612 -0.029307 0.130992 11.795918 6.342367 -18.448206 -11.897885 -1.453654 0.925998 0.474655 0.0 -0.0 -1e-06 
0.0 0.0 0.0 0.0 -0.0 0.0 -0.802194 99.164406 -1.806425 0.357027 8.077758 -4.923089 1.051864 0.389063 -4.595875 0.167094 1.20502 -6.924266 1.369984 0.322036 14.421206 13.330143 -4.754646 11.540609 -0.207743 2.088617 -3.793513 3.79876 -2.151411 0.508604 7.7e-05 -2.3e-05 6e-06 -0.091311 0.078887 -0.11458 0.722747 -3.576247 -10.616874 -0.890856 3.725245 -10.571299 -7.047596 -3.392168 15.018476 -69.248421 -6.644199 16.726137 0.510159 -27.642004 -0.467587 -2.391553 -5.384621 3.877963 -5.88211 9.86129 0.702591 -10.936878 -0.360575 7.156209 0.0 8.77483 -1e-06 -15.369203 17.870413 6.340149 -1.844033 2.498503 -2.50728 -10.163604 4.678946 4.62111 -20.976034 -4e-06 2e-06 -21.226297 2.451698 -3.594001 1e-06 -6e-06 0.0 -1.362682 2.240799 -0.746325 -21.334929 0.584908 3.008324 -13.821221 -3e-06 2e-06 -23.887184 -0.249081 -0.839484 -60.059834 2.393623 -1.252026 -0.294025 1.679687 0.833256 -14.218217 0.093214 1.300581 -34.212074 -0.287565 0.967172 -20.03323 0.964536 1.212845 0.0 1e-06 0.0 -3.440391 0.788235 0.501655 -15.928198 -3.167311 2.999707 -6.33883 -0.0 1e-06 -18.123457 3.648184 -4.905674 -4e-06 0.0 -3e-06 4.941173 15.684834 11.950763 -88.506157 62.342628 -120.968948 -176.159256 64.306778 -177.764175 20.119263 -0.523096 6.093363 2.243541 -5.255036 -3.180161 14.282896 -0.826592 6.952508 -6e-06 -12.690605 0.0 19.226505 -16.296402 1.9478 1.665667 -1.955922 -2.8783 4.727799 -4.170588 4.993928 11.020528 7e-06 -1e-06 12.109056 -3.735714 -2.866783 -1e-06 1e-06 -0.0 1.291986 -1.92855 -1.498091 14.800134 0.567472 3.865611 14.242577 -1.341734 -6.660657 19.631975 0.14393 -0.648239 52.338303 -1.270288 -5.402872 0.353028 -1.51115 -0.031939 20.222795 3.684316 2.316636 18.787275 9e-06 4e-06 10.751631 -0.479868 1.397908 -1e-06 1e-06 -1e-06 3.273808 0.305947 -0.580111 21.486824 11.830382 2.266136 8.16293 1e-06 0.0 18.399088 -3.798986 -4.94057 1e-06 -2e-06 -3e-06 8.061821 5.68895 6.671459 0.009451 -0.086205 4.577189 -8.416149 -1.455264 -5.680693 1.662609 -2.074346 -0.553711 0.0 0.0 2e-06 -2.679466 -3.865119 4.399105 -0.026179 0.122391 11.824568 6.31728 -18.316399 -11.903886 -1.451099 0.937415 0.466397 -0.0 -0.0 -1e-06 
